<svg xmlns="http://www.w3.org/2000/svg" width="64" height="64" viewBox="0 0 64 64" fill="none"><path d="M24 58H16C15.7348 58 15.4804 58.1054 15.2929 58.2929C15.1054 58.4804 15 58.7348 15 59C15 59.2652 15.1054 59.5196 15.2929 59.7071C15.4804 59.8946 15.7348 60 16 60H24C24.2652 60 24.5196 59.8946 24.7071 59.7071C24.8946 59.5196 25 59.2652 25 59C25 58.7348 24.8946 58.4804 24.7071 58.2929C24.5196 58.1054 24.2652 58 24 58Z" fill="url(#paint0_linear_939_1420)"></path><path d="M58.5 20H38V4.5C37.999 3.57206 37.6299 2.68241 36.9737 2.02626C36.3176 1.3701 35.4279 1.00103 34.5 1H5.5C4.57206 1.00103 3.68241 1.3701 3.02626 2.02626C2.3701 2.68241 2.00103 3.57206 2 4.5V59.5C2.00103 60.4279 2.3701 61.3176 3.02626 61.9737C3.68241 62.6299 4.57206 62.999 5.5 63H34.5C35.4279 62.999 36.3176 62.6299 36.9737 61.9737C37.6299 61.3176 37.999 60.4279 38 59.5V45H58.5C59.4279 44.999 60.3176 44.6299 60.9737 43.9737C61.6299 43.3176 61.999 42.4279 62 41.5V23.5C61.999 22.5721 61.6299 21.6824 60.9737 21.0263C60.3176 20.3701 59.4279 20.001 58.5 20ZM24.7188 3L24.2188 5H15.7812L15.2812 3H24.7188ZM36 59.5C35.9997 59.8977 35.8415 60.2791 35.5603 60.5603C35.2791 60.8415 34.8977 60.9997 34.5 61H5.5C5.10228 60.9997 4.72094 60.8415 4.43971 60.5603C4.15847 60.2791 4.00033 59.8977 4 59.5V4.5C4.00033 4.10228 4.15847 3.72094 4.43971 3.43971C4.72094 3.15847 5.10228 3.00033 5.5 3H13.2188L14.03 6.2425C14.0841 6.45884 14.2089 6.6509 14.3847 6.78815C14.5604 6.9254 14.777 6.99997 15 7H25C25.223 6.99997 25.4396 6.9254 25.6153 6.78815C25.7911 6.6509 25.9159 6.45884 25.97 6.2425L26.7812 3H34.5C34.8977 3.00033 35.2791 3.15847 35.5603 3.43971C35.8415 3.72094 35.9997 4.10228 36 4.5V59.5ZM38 35H41V39H38V35ZM60 41.5C59.9997 41.8977 59.8415 42.2791 59.5603 42.5603C59.2791 42.8415 58.8977 42.9997 58.5 43H38V41H42C42.2652 41 42.5196 40.8946 42.7071 40.7071C42.8946 40.5196 43 40.2652 43 40V34C43 33.7348 42.8946 33.4804 42.7071 33.2929C42.5196 33.1054 42.2652 33 42 33H38V30H60V41.5ZM60 28H38V26H60V28ZM60 24H38V22H58.5C58.8977 22.0003 59.2791 22.1585 59.5603 22.4397C59.8415 22.7209 59.9997 23.1023 60 23.5V24Z" fill="url(#paint1_linear_939_1420)"></path><path d="M57 33H48C47.7348 33 47.4804 33.1054 47.2929 33.2929C47.1054 33.4804 47 33.7348 47 34C47 34.2652 47.1054 34.5196 47.2929 34.7071C47.4804 34.8946 47.7348 35 48 35H57C57.2652 35 57.5196 34.8946 57.7071 34.7071C57.8946 34.5196 58 34.2652 58 34C58 33.7348 57.8946 33.4804 57.7071 33.2929C57.5196 33.1054 57.2652 33 57 33Z" fill="url(#paint2_linear_939_1420)"></path><path d="M57 36H48C47.7348 36 47.4804 36.1054 47.2929 36.2929C47.1054 36.4804 47 36.7348 47 37C47 37.2652 47.1054 37.5196 47.2929 37.7071C47.4804 37.8946 47.7348 38 48 38H57C57.2652 38 57.5196 37.8946 57.7071 37.7071C57.8946 37.5196 58 37.2652 58 37C58 36.7348 57.8946 36.4804 57.7071 36.2929C57.5196 36.1054 57.2652 36 57 36Z" fill="url(#paint3_linear_939_1420)"></path><path d="M57 39H53C52.7348 39 52.4804 39.1054 52.2929 39.2929C52.1054 39.4804 52 39.7348 52 40C52 40.2652 52.1054 40.5196 52.2929 40.7071C52.4804 40.8946 52.7348 41 53 41H57C57.2652 41 57.5196 40.8946 57.7071 40.7071C57.8946 40.5196 58 40.2652 58 40C58 39.7348 57.8946 39.4804 57.7071 39.2929C57.5196 39.1054 57.2652 39 57 39Z" fill="url(#paint4_linear_939_1420)"></path><path d="M20 20C17.6266 20 15.3065 20.7038 13.3332 22.0224C11.3598 23.3409 9.8217 25.2151 8.91345 27.4078C8.00519 29.6005 7.76755 32.0133 8.23058 34.3411C8.6936 36.6689 9.83649 38.8071 11.5147 40.4853C13.1929 42.1635 15.3311 43.3064 17.6589 43.7694C19.9867 44.2324 22.3995 43.9948 24.5922 43.0866C26.7849 42.1783 28.6591 40.6402 29.9776 38.6668C31.2962 36.6935 32 34.3734 32 32C31.9964 28.8185 30.731 25.7683 28.4813 23.5187C26.2317 21.269 23.1815 20.0036 20 20ZM20 42C18.0222 42 16.0888 41.4135 14.4443 40.3147C12.7998 39.2159 11.5181 37.6541 10.7612 35.8268C10.0043 33.9996 9.80629 31.9889 10.1921 30.0491C10.578 28.1093 11.5304 26.3275 12.9289 24.9289C14.3275 23.5304 16.1093 22.578 18.0491 22.1921C19.9889 21.8063 21.9996 22.0043 23.8268 22.7612C25.6541 23.5181 27.2159 24.7998 28.3147 26.4443C29.4135 28.0888 30 30.0222 30 32C29.997 34.6512 28.9425 37.193 27.0677 39.0677C25.193 40.9425 22.6512 41.997 20 42Z" fill="url(#paint5_linear_939_1420)"></path><path d="M25.2929 28.2929L18.9061 34.6796L15.6 32.2C15.3878 32.0409 15.1211 31.9725 14.8586 32.0101C14.596 32.0476 14.3591 32.1878 14.2 32.4C14.0409 32.6122 13.9725 32.8789 14.0101 33.1414C14.0476 33.404 14.1878 33.6409 14.4 33.8L18.4 36.8C18.5926 36.9444 18.8308 37.0146 19.0709 36.9975C19.311 36.9804 19.5369 36.8773 19.7071 36.7071L26.7071 29.7071C26.8947 29.5196 27 29.2652 27 29C27 28.7348 26.8947 28.4804 26.7071 28.2929C26.5196 28.1053 26.2652 28 26 28C25.7348 28 25.4804 28.1053 25.2929 28.2929Z" fill="url(#paint6_linear_939_1420)"></path><defs><linearGradient id="paint0_linear_939_1420" x1="2" y1="32" x2="59.6215" y2="34.8438" gradientUnits="userSpaceOnUse"><stop stop-color="#065EFE"></stop><stop offset="1" stop-color="#00DCC7"></stop></linearGradient><linearGradient id="paint1_linear_939_1420" x1="2" y1="32" x2="59.6215" y2="34.8438" gradientUnits="userSpaceOnUse"><stop stop-color="#065EFE"></stop><stop offset="1" stop-color="#00DCC7"></stop></linearGradient><linearGradient id="paint2_linear_939_1420" x1="2" y1="32" x2="59.6215" y2="34.8438" gradientUnits="userSpaceOnUse"><stop stop-color="#065EFE"></stop><stop offset="1" stop-color="#00DCC7"></stop></linearGradient><linearGradient id="paint3_linear_939_1420" x1="2" y1="32" x2="59.6215" y2="34.8438" gradientUnits="userSpaceOnUse"><stop stop-color="#065EFE"></stop><stop offset="1" stop-color="#00DCC7"></stop></linearGradient><linearGradient id="paint4_linear_939_1420" x1="2" y1="32" x2="59.6215" y2="34.8438" gradientUnits="userSpaceOnUse"><stop stop-color="#065EFE"></stop><stop offset="1" stop-color="#00DCC7"></stop></linearGradient><linearGradient id="paint5_linear_939_1420" x1="2" y1="32" x2="59.6215" y2="34.8438" gradientUnits="userSpaceOnUse"><stop stop-color="#065EFE"></stop><stop offset="1" stop-color="#00DCC7"></stop></linearGradient><linearGradient id="paint6_linear_939_1420" x1="2" y1="32" x2="59.6215" y2="34.8438" gradientUnits="userSpaceOnUse"><stop stop-color="#065EFE"></stop><stop offset="1" stop-color="#00DCC7"></stop></linearGradient></defs></svg>