<svg xmlns="http://www.w3.org/2000/svg" width="64" height="64" viewBox="0 0 64 64" fill="none"><path d="M38.0002 12.9996H35.0002V9.9996C35.0002 9.73438 34.8949 9.48003 34.7073 9.29249C34.5198 9.10496 34.2654 8.9996 34.0002 8.9996H30.0002C29.735 8.9996 29.4807 9.10496 29.2931 9.29249C29.1056 9.48003 29.0002 9.73438 29.0002 9.9996V12.9996H26.0002C25.735 12.9996 25.4807 13.105 25.2931 13.2925C25.1056 13.48 25.0002 13.7344 25.0002 13.9996V17.9996C25.0002 18.2648 25.1056 18.5192 25.2931 18.7067C25.4807 18.8942 25.735 18.9996 26.0002 18.9996H29.0002V21.9996C29.0002 22.2648 29.1056 22.5192 29.2931 22.7067C29.4807 22.8942 29.735 22.9996 30.0002 22.9996H34.0002C34.2654 22.9996 34.5198 22.8942 34.7073 22.7067C34.8949 22.5192 35.0002 22.2648 35.0002 21.9996V18.9996H38.0002C38.2655 18.9996 38.5198 18.8942 38.7073 18.7067C38.8949 18.5192 39.0002 18.2648 39.0002 17.9996V13.9996C39.0002 13.7344 38.8949 13.48 38.7073 13.2925C38.5198 13.105 38.2655 12.9996 38.0002 12.9996ZM37.0002 16.9996H34.0002C33.735 16.9996 33.4807 17.105 33.2931 17.2925C33.1056 17.48 33.0002 17.7344 33.0002 17.9996V20.9996H31.0002V17.9996C31.0002 17.7344 30.8949 17.48 30.7073 17.2925C30.5198 17.105 30.2655 16.9996 30.0002 16.9996H27.0002V14.9996H30.0002C30.2655 14.9996 30.5198 14.8942 30.7073 14.7067C30.8949 14.5192 31.0002 14.2648 31.0002 13.9996V10.9996H33.0002V13.9996C33.0002 14.2648 33.1056 14.5192 33.2931 14.7067C33.4807 14.8942 33.735 14.9996 34.0002 14.9996H37.0002V16.9996Z" fill="url(#paint0_linear_995_2641)"></path><path d="M59.7302 18.3596C59.7505 18.1837 59.7605 18.0067 59.7602 17.8296C59.7554 16.913 59.4374 16.0255 58.859 15.3144C58.2807 14.6032 57.4766 14.1111 56.5802 13.9196C55.5663 13.7266 54.5168 13.9259 53.6443 14.4773C52.7717 15.0287 52.1412 15.891 51.8802 16.8896L47.4802 29.5496C47.415 29.5755 47.3516 29.6055 47.2902 29.6396L38.4502 34.8196C37.0975 35.6142 35.9755 36.7479 35.1951 38.1089C34.4147 39.4698 34.0028 41.0108 34.0002 42.5796V51.9996C33.735 51.9996 33.4807 52.1049 33.2931 52.2925C33.1056 52.48 33.0002 52.7344 33.0002 52.9996V60.9996C33.0002 61.2648 33.1056 61.5192 33.2931 61.7067C33.4807 61.8942 33.735 61.9996 34.0002 61.9996H48.0002C48.2655 61.9996 48.5198 61.8942 48.7073 61.7067C48.8949 61.5192 49.0002 61.2648 49.0002 60.9996V52.9996C49.0002 52.7344 48.8949 52.48 48.7073 52.2925C48.5198 52.1049 48.2655 51.9996 48.0002 51.9996V49.7996C48.0021 49.3772 48.092 48.9599 48.2642 48.5742C48.4364 48.1885 48.687 47.843 49.0002 47.5596L55.7602 41.5496C56.4997 40.9026 57.029 40.0495 57.2802 39.0996L61.6202 22.8696C61.7129 22.5307 61.76 22.1809 61.7602 21.8296C61.7563 21.1239 61.5666 20.4317 61.2103 19.8225C60.8539 19.2134 60.3435 18.7088 59.7302 18.3596ZM53.7902 17.4796C53.913 16.9624 54.2261 16.5106 54.6672 16.214C55.1083 15.9175 55.645 15.7981 56.1702 15.8796C56.6185 15.9735 57.0209 16.2183 57.3103 16.5732C57.5997 16.9282 57.7585 17.3717 57.7602 17.8296V17.8496C56.867 17.8662 56.0036 18.1741 55.3014 18.7264C54.5992 19.2788 54.0967 20.0454 53.8702 20.9096L51.0802 29.5196C50.6578 29.3192 50.2049 29.1908 49.7402 29.1396L53.7902 17.4796ZM47.0002 59.9996H35.0002V53.9996H47.0002V59.9996ZM59.6902 22.3496L55.3402 38.5896C55.1897 39.1539 54.8768 39.6616 54.4402 40.0496L47.6702 46.0596C47.1464 46.532 46.7272 47.1088 46.4396 47.7529C46.1519 48.397 46.0023 49.0942 46.0002 49.7996V51.9996H36.0002V42.5796C36.0052 41.3595 36.3266 40.1616 36.9331 39.1029C37.5395 38.0443 38.4103 37.161 39.4602 36.5396L48.2902 31.3696C48.5179 31.2369 48.7695 31.1506 49.0307 31.1155C49.2918 31.0804 49.5574 31.0973 49.812 31.1651C50.0666 31.2329 50.3053 31.3504 50.5144 31.5108C50.7234 31.6712 50.8987 31.8713 51.0302 32.0996C51.29 32.5617 51.3616 33.1061 51.2302 33.6196C51.1608 33.8732 51.042 34.1106 50.8807 34.3182C50.7194 34.5258 50.5188 34.6996 50.2902 34.8296L44.5602 38.1396C44.3426 38.278 44.1868 38.4951 44.1254 38.7456C44.0641 38.9961 44.1019 39.2607 44.2309 39.484C44.36 39.7073 44.5704 39.8721 44.8181 39.9439C45.0658 40.0158 45.3317 39.9892 45.5602 39.8696L51.2902 36.5596C51.7482 36.2997 52.1496 35.9509 52.4708 35.5336C52.7919 35.1162 53.0263 34.6389 53.1602 34.1296C53.4324 33.1064 53.2886 32.0171 52.7602 31.0996L52.7002 31.0096L55.7902 21.4796C55.913 20.9624 56.2261 20.5106 56.6672 20.214C57.1083 19.9175 57.645 19.7981 58.1702 19.8796C58.6185 19.9735 59.0209 20.2183 59.3103 20.5732C59.5997 20.9282 59.7585 21.3717 59.7602 21.8296C59.7636 22.0055 59.74 22.1809 59.6902 22.3496Z" fill="url(#paint1_linear_995_2641)"></path><path d="M30.0002 51.9996V42.5796C29.9976 41.0108 29.5858 39.4698 28.8054 38.1089C28.0249 36.7479 26.9029 35.6142 25.5502 34.8196L16.7102 29.6296C16.6502 29.5996 16.5802 29.5796 16.5202 29.5496L12.1502 16.9596C11.8962 15.9464 11.2657 15.068 10.387 14.5033C9.5083 13.9385 8.4474 13.7298 7.42023 13.9196C6.52383 14.1111 5.71979 14.6032 5.14142 15.3144C4.56305 16.0255 4.24508 16.913 4.24023 17.8296C4.23997 18.0067 4.24999 18.1837 4.27023 18.3596C3.657 18.7088 3.14654 19.2134 2.79019 19.8225C2.43383 20.4317 2.24416 21.1239 2.24023 21.8296C2.24218 22.1802 2.28582 22.5293 2.37023 22.8696L6.72023 39.0896C6.96882 40.0434 7.4984 40.9005 8.24023 41.5496L14.9902 47.5596C15.3066 47.841 15.56 48.186 15.734 48.5719C15.9081 48.9579 15.9988 49.3762 16.0002 49.7996V51.9996C15.735 51.9996 15.4807 52.105 15.2931 52.2925C15.1056 52.48 15.0002 52.7344 15.0002 52.9996V60.9996C15.0002 61.2648 15.1056 61.5192 15.2931 61.7067C15.4807 61.8942 15.735 61.9996 16.0002 61.9996H30.0002C30.2655 61.9996 30.5198 61.8942 30.7073 61.7067C30.8949 61.5192 31.0002 61.2648 31.0002 60.9996V52.9996C31.0002 52.7344 30.8949 52.48 30.7073 52.2925C30.5198 52.105 30.2655 51.9996 30.0002 51.9996ZM6.24023 17.8296C6.24147 17.373 6.39887 16.9306 6.68629 16.5759C6.97372 16.2212 7.37386 15.9755 7.82023 15.8796C8.35989 15.8013 8.90922 15.9299 9.35804 16.2396C9.80686 16.5493 10.122 17.0173 10.2402 17.5496L14.2602 29.1396C13.7955 29.1908 13.3426 29.3192 12.9202 29.5196L10.1502 20.9596C9.9248 20.0868 9.42127 19.3112 8.71581 18.7501C8.01035 18.189 7.14134 17.8729 6.24023 17.8496V17.8296ZM16.3202 46.0596L9.56024 40.0496C9.12129 39.6595 8.80805 39.1479 8.66023 38.5796L4.30023 22.3496C4.25884 22.1794 4.23869 22.0047 4.24023 21.8296C4.24147 21.373 4.39887 20.9307 4.68629 20.5759C4.97372 20.2212 5.37386 19.9755 5.82023 19.8796C6.3561 19.7992 6.90254 19.9246 7.34965 20.2308C7.79676 20.5369 8.11138 21.0009 8.23023 21.5296L11.3002 31.0096L11.2402 31.0996C10.7118 32.0171 10.568 33.1064 10.8402 34.1296C10.9741 34.6389 11.2085 35.1162 11.5297 35.5336C11.8508 35.9509 12.2522 36.2997 12.7102 36.5596L18.4402 39.8696C18.6688 39.9892 18.9347 40.0158 19.1824 39.9439C19.4301 39.8721 19.6405 39.7073 19.7695 39.484C19.8986 39.2607 19.9364 38.9961 19.875 38.7456C19.8137 38.4951 19.6579 38.278 19.4402 38.1396L13.7102 34.8296C13.4817 34.6996 13.2811 34.5258 13.1198 34.3182C12.9585 34.1106 12.8397 33.8732 12.7702 33.6196C12.6389 33.1061 12.7105 32.5617 12.9702 32.0996C13.1009 31.8717 13.2752 31.6719 13.4831 31.5114C13.691 31.3509 13.9285 31.2329 14.182 31.1642C14.4355 31.0955 14.7 31.0773 14.9605 31.1109C15.221 31.1444 15.4724 31.2289 15.7002 31.3596L24.5402 36.5396C25.5902 37.161 26.4609 38.0443 27.0674 39.1029C27.6739 40.1616 27.9953 41.3595 28.0002 42.5796V51.9996H18.0002V49.7996C17.9985 49.0932 17.848 48.3951 17.5586 47.7507C17.2691 47.1063 16.8472 46.5301 16.3202 46.0596ZM29.0002 59.9996H17.0002V53.9996H29.0002V59.9996Z" fill="url(#paint2_linear_995_2641)"></path><path d="M46.1472 5.1316C45.2189 4.20163 44.1163 3.46387 42.9025 2.96053C41.6887 2.45719 40.3875 2.19815 39.0735 2.19824C37.7595 2.19834 36.4584 2.45756 35.2447 2.96107C34.031 3.46458 32.9284 4.2025 32.0002 5.1326C31.0721 4.20248 29.9697 3.46455 28.756 2.96106C27.5423 2.45758 26.2412 2.19841 24.9272 2.19841C23.6133 2.19841 22.3122 2.45758 21.0985 2.96106C19.8848 3.46455 18.7824 4.20248 17.8542 5.1326C15.9826 7.00828 14.9314 9.54983 14.9314 12.1996C14.9314 14.8494 15.9826 17.3909 17.8542 19.2666L31.2942 32.7066C31.4818 32.8941 31.7361 32.9994 32.0012 32.9994C32.2664 32.9994 32.5207 32.8941 32.7082 32.7066L46.1482 19.2666C48.0198 17.3906 49.0708 14.8488 49.0706 12.1989C49.0704 9.54896 48.0191 7.00732 46.1472 5.1316ZM32.0002 30.5856L19.2672 17.8526C18.1494 16.7332 17.3885 15.3075 17.0807 13.7557C16.773 12.204 16.9323 10.5958 17.5384 9.13455C18.1445 7.67329 19.1702 6.42452 20.4859 5.54613C21.8017 4.66773 23.3483 4.19914 24.9302 4.1996C25.9811 4.19599 27.0222 4.40166 27.9928 4.80462C28.9633 5.20757 29.8439 5.79974 30.5832 6.5466L31.2932 7.2566C31.4808 7.44407 31.7351 7.54939 32.0002 7.54939C32.2654 7.54939 32.5197 7.44407 32.7072 7.2566L33.4192 6.5446C34.1616 5.80085 35.0434 5.2108 36.0141 4.80821C36.9848 4.40563 38.0254 4.1984 39.0762 4.1984C40.1271 4.1984 41.1677 4.40563 42.1384 4.80821C43.109 5.2108 43.9908 5.80085 44.7332 6.5446C46.2312 8.04458 47.0725 10.0778 47.0725 12.1976C47.0725 14.3174 46.2312 16.3506 44.7332 17.8506L32.0002 30.5856Z" fill="url(#paint3_linear_995_2641)"></path><defs><linearGradient id="paint0_linear_995_2641" x1="2.24023" y1="32.0989" x2="59.3927" y2="34.9999" gradientUnits="userSpaceOnUse"><stop stop-color="#065EFE"></stop><stop offset="1" stop-color="#00DCC7"></stop></linearGradient><linearGradient id="paint1_linear_995_2641" x1="2.24023" y1="32.0989" x2="59.3927" y2="34.9999" gradientUnits="userSpaceOnUse"><stop stop-color="#065EFE"></stop><stop offset="1" stop-color="#00DCC7"></stop></linearGradient><linearGradient id="paint2_linear_995_2641" x1="2.24023" y1="32.0989" x2="59.3927" y2="34.9999" gradientUnits="userSpaceOnUse"><stop stop-color="#065EFE"></stop><stop offset="1" stop-color="#00DCC7"></stop></linearGradient><linearGradient id="paint3_linear_995_2641" x1="2.24023" y1="32.0989" x2="59.3927" y2="34.9999" gradientUnits="userSpaceOnUse"><stop stop-color="#065EFE"></stop><stop offset="1" stop-color="#00DCC7"></stop></linearGradient></defs></svg>