<svg xmlns="http://www.w3.org/2000/svg" width="64" height="64" viewBox="0 0 64 64" fill="none"><path d="M47 33.184V31H45V33H43V36C43 37.654 44.346 39 46 39C46.552 39 47 39.449 47 40V41H46C45.448 41 45 40.551 45 40V39H43V40C43 41.302 43.839 42.402 45 42.816V45H47V43H49V40C49 38.346 47.654 37 46 37C45.448 37 45 36.551 45 36V35H46C46.552 35 47 35.449 47 36V37H49V36C49 34.698 48.161 33.598 47 33.184Z" fill="url(#paint0_linear_995_2609)"></path><path d="M5 43H7V45H5V43Z" fill="url(#paint1_linear_995_2609)"></path><path d="M9 43H11V45H9V43Z" fill="url(#paint2_linear_995_2609)"></path><path d="M13 43H15V45H13V43Z" fill="url(#paint3_linear_995_2609)"></path><path d="M5 37H7V39H5V37Z" fill="url(#paint4_linear_995_2609)"></path><path d="M9 37H11V39H9V37Z" fill="url(#paint5_linear_995_2609)"></path><path d="M13 37H15V39H13V37Z" fill="url(#paint6_linear_995_2609)"></path><path d="M5 31H7V33H5V31Z" fill="url(#paint7_linear_995_2609)"></path><path d="M9 31H11V33H9V31Z" fill="url(#paint8_linear_995_2609)"></path><path d="M13 31H15V33H13V31Z" fill="url(#paint9_linear_995_2609)"></path><path d="M61.448 49.288C62.461 47.305 63 45.113 63 42.86C63 39.487 61.791 36.219 59.596 33.658L51 23.631V20.303L51.168 20.051C52.366 18.253 53 16.161 53 14V13.586L52.707 13.293C52.473 13.058 50.234 11 44 11H43V12C43 12.338 43.01 12.677 43.03 13.014C41.354 13.088 39.862 14.04 39.106 15.552L38.882 16L41 20.236V23.63L39 25.963V21.17L35 20.42V11H33V20.045L31 19.67V15H29V19.295L27 18.92V9.17L21 8.045V1H19V7.67L17 7.295V3H15V6.92L9 5.795V25.67L7 26.045V21H5V26.42L1 27.17V63H50.703C52.364 63 53.979 62.668 55.504 62.014C58.891 60.563 61.412 57.701 62.423 54.16L62.894 52.512C62.964 52.266 63 52.012 63 51.755C63 50.668 62.363 49.736 61.448 49.288ZM61 42.861C61 45.097 60.384 47.265 59.23 49.162C58.538 49.363 57.907 49.75 57.434 50.317L55.63 52.482C54.297 54.082 52.337 55 50.253 55H43.624C43.28 55 43 54.72 43 54.376C43 54.069 43.22 53.811 43.521 53.76L46.191 53.315C47.818 53.044 49 51.65 49 50C49 48.346 47.654 47 46 47H43C39.702 47 36.437 48.055 33.748 49.961L33.259 49.9C31.785 47.837 31 45.415 31 42.86C31 39.964 32.038 37.159 33.922 34.96L42.46 25H49.541L58.079 34.96C59.962 37.159 61 39.965 61 42.861ZM49 21V23H43V21H49ZM50.987 14.486C50.9 16.077 50.392 17.608 49.504 18.941L49.465 19H46.627C45.716 17.137 45.168 15.093 45.034 13.021C48.536 13.172 50.326 14.064 50.987 14.486ZM43.236 15H43.257C43.491 16.373 43.883 17.719 44.425 19H42.618L41.141 16.046C41.63 15.392 42.397 15 43.236 15ZM37 28.297L34.683 31H33V32.964L32.404 33.659C31.534 34.673 30.827 35.802 30.281 37H29V39H29.544C29.189 40.248 29 41.545 29 42.861C29 45.244 29.584 47.529 30.697 49.58L23 48.617V20.205L37 22.83V28.297ZM11 8.205L25 10.83V18.545L21 17.795V48.367L19 48.117V23.795L11 25.295V8.205ZM17 26.205V47.867L3 46.117V28.83L17 26.205ZM3 48.133L27 51.133V61H3V48.133ZM29 61V51.383L33 51.883V61H29ZM60.971 51.961L60.499 53.61C59.654 56.569 57.547 58.963 54.716 60.175C53.441 60.723 52.091 61 50.703 61H35V51.511C37.334 49.889 40.155 49 43 49H46C46.552 49 47 49.449 47 50C47 50.668 46.521 51.232 45.863 51.342L43.193 51.787C41.923 51.999 41 53.088 41 54.376C41 55.823 42.177 57 43.624 57H50.253C52.932 57 55.452 55.82 57.167 53.762L58.97 51.598C59.287 51.218 59.752 51 60.246 51C60.662 51 61 51.338 61 51.754C61 51.825 60.99 51.895 60.971 51.961Z" fill="url(#paint10_linear_995_2609)"></path><path d="M25 37H27V39H25V37Z" fill="url(#paint11_linear_995_2609)"></path><path d="M25 43H27V45H25V43Z" fill="url(#paint12_linear_995_2609)"></path><path d="M29 31H31V33H29V31Z" fill="url(#paint13_linear_995_2609)"></path><path d="M25 31H27V33H25V31Z" fill="url(#paint14_linear_995_2609)"></path><path d="M33 25H35V27H33V25Z" fill="url(#paint15_linear_995_2609)"></path><path d="M29 25H31V27H29V25Z" fill="url(#paint16_linear_995_2609)"></path><path d="M25 25H27V27H25V25Z" fill="url(#paint17_linear_995_2609)"></path><path d="M13 19H15V21H13V19Z" fill="url(#paint18_linear_995_2609)"></path><path d="M21 13H23V15H21V13Z" fill="url(#paint19_linear_995_2609)"></path><path d="M17 13H19V15H17V13Z" fill="url(#paint20_linear_995_2609)"></path><path d="M13 13H15V15H13V13Z" fill="url(#paint21_linear_995_2609)"></path><path d="M17 19H19V21H17V19Z" fill="url(#paint22_linear_995_2609)"></path><defs><linearGradient id="paint0_linear_995_2609" x1="1" y1="32" x2="60.5324" y2="35.0361" gradientUnits="userSpaceOnUse"><stop stop-color="#065EFE"></stop><stop offset="1" stop-color="#00DCC7"></stop></linearGradient><linearGradient id="paint1_linear_995_2609" x1="1" y1="32" x2="60.5324" y2="35.0361" gradientUnits="userSpaceOnUse"><stop stop-color="#065EFE"></stop><stop offset="1" stop-color="#00DCC7"></stop></linearGradient><linearGradient id="paint2_linear_995_2609" x1="1" y1="32" x2="60.5324" y2="35.0361" gradientUnits="userSpaceOnUse"><stop stop-color="#065EFE"></stop><stop offset="1" stop-color="#00DCC7"></stop></linearGradient><linearGradient id="paint3_linear_995_2609" x1="1" y1="32" x2="60.5324" y2="35.0361" gradientUnits="userSpaceOnUse"><stop stop-color="#065EFE"></stop><stop offset="1" stop-color="#00DCC7"></stop></linearGradient><linearGradient id="paint4_linear_995_2609" x1="1" y1="32" x2="60.5324" y2="35.0361" gradientUnits="userSpaceOnUse"><stop stop-color="#065EFE"></stop><stop offset="1" stop-color="#00DCC7"></stop></linearGradient><linearGradient id="paint5_linear_995_2609" x1="1" y1="32" x2="60.5324" y2="35.0361" gradientUnits="userSpaceOnUse"><stop stop-color="#065EFE"></stop><stop offset="1" stop-color="#00DCC7"></stop></linearGradient><linearGradient id="paint6_linear_995_2609" x1="1" y1="32" x2="60.5324" y2="35.0361" gradientUnits="userSpaceOnUse"><stop stop-color="#065EFE"></stop><stop offset="1" stop-color="#00DCC7"></stop></linearGradient><linearGradient id="paint7_linear_995_2609" x1="1" y1="32" x2="60.5324" y2="35.0361" gradientUnits="userSpaceOnUse"><stop stop-color="#065EFE"></stop><stop offset="1" stop-color="#00DCC7"></stop></linearGradient><linearGradient id="paint8_linear_995_2609" x1="1" y1="32" x2="60.5324" y2="35.0361" gradientUnits="userSpaceOnUse"><stop stop-color="#065EFE"></stop><stop offset="1" stop-color="#00DCC7"></stop></linearGradient><linearGradient id="paint9_linear_995_2609" x1="1" y1="32" x2="60.5324" y2="35.0361" gradientUnits="userSpaceOnUse"><stop stop-color="#065EFE"></stop><stop offset="1" stop-color="#00DCC7"></stop></linearGradient><linearGradient id="paint10_linear_995_2609" x1="1" y1="32" x2="60.5324" y2="35.0361" gradientUnits="userSpaceOnUse"><stop stop-color="#065EFE"></stop><stop offset="1" stop-color="#00DCC7"></stop></linearGradient><linearGradient id="paint11_linear_995_2609" x1="1" y1="32" x2="60.5324" y2="35.0361" gradientUnits="userSpaceOnUse"><stop stop-color="#065EFE"></stop><stop offset="1" stop-color="#00DCC7"></stop></linearGradient><linearGradient id="paint12_linear_995_2609" x1="1" y1="32" x2="60.5324" y2="35.0361" gradientUnits="userSpaceOnUse"><stop stop-color="#065EFE"></stop><stop offset="1" stop-color="#00DCC7"></stop></linearGradient><linearGradient id="paint13_linear_995_2609" x1="1" y1="32" x2="60.5324" y2="35.0361" gradientUnits="userSpaceOnUse"><stop stop-color="#065EFE"></stop><stop offset="1" stop-color="#00DCC7"></stop></linearGradient><linearGradient id="paint14_linear_995_2609" x1="1" y1="32" x2="60.5324" y2="35.0361" gradientUnits="userSpaceOnUse"><stop stop-color="#065EFE"></stop><stop offset="1" stop-color="#00DCC7"></stop></linearGradient><linearGradient id="paint15_linear_995_2609" x1="1" y1="32" x2="60.5324" y2="35.0361" gradientUnits="userSpaceOnUse"><stop stop-color="#065EFE"></stop><stop offset="1" stop-color="#00DCC7"></stop></linearGradient><linearGradient id="paint16_linear_995_2609" x1="1" y1="32" x2="60.5324" y2="35.0361" gradientUnits="userSpaceOnUse"><stop stop-color="#065EFE"></stop><stop offset="1" stop-color="#00DCC7"></stop></linearGradient><linearGradient id="paint17_linear_995_2609" x1="1" y1="32" x2="60.5324" y2="35.0361" gradientUnits="userSpaceOnUse"><stop stop-color="#065EFE"></stop><stop offset="1" stop-color="#00DCC7"></stop></linearGradient><linearGradient id="paint18_linear_995_2609" x1="1" y1="32" x2="60.5324" y2="35.0361" gradientUnits="userSpaceOnUse"><stop stop-color="#065EFE"></stop><stop offset="1" stop-color="#00DCC7"></stop></linearGradient><linearGradient id="paint19_linear_995_2609" x1="1" y1="32" x2="60.5324" y2="35.0361" gradientUnits="userSpaceOnUse"><stop stop-color="#065EFE"></stop><stop offset="1" stop-color="#00DCC7"></stop></linearGradient><linearGradient id="paint20_linear_995_2609" x1="1" y1="32" x2="60.5324" y2="35.0361" gradientUnits="userSpaceOnUse"><stop stop-color="#065EFE"></stop><stop offset="1" stop-color="#00DCC7"></stop></linearGradient><linearGradient id="paint21_linear_995_2609" x1="1" y1="32" x2="60.5324" y2="35.0361" gradientUnits="userSpaceOnUse"><stop stop-color="#065EFE"></stop><stop offset="1" stop-color="#00DCC7"></stop></linearGradient><linearGradient id="paint22_linear_995_2609" x1="1" y1="32" x2="60.5324" y2="35.0361" gradientUnits="userSpaceOnUse"><stop stop-color="#065EFE"></stop><stop offset="1" stop-color="#00DCC7"></stop></linearGradient></defs></svg>