<svg xmlns="http://www.w3.org/2000/svg" width="64" height="64" viewBox="0 0 64 64" fill="none"><g clip-path="url(#clip0_939_1431)"><path d="M63.1039 25.5772L56.5056 24.8875C55.9829 23.0852 55.2618 21.3465 54.3556 19.7033L58.5354 14.5476C58.691 14.3556 58.77 14.1127 58.7571 13.8659C58.7443 13.619 58.6404 13.3857 58.4656 13.2109L50.7891 5.53438C50.6143 5.35955 50.381 5.25568 50.1341 5.2428C49.8872 5.22992 49.6443 5.30894 49.4523 5.46462L44.2966 9.64437C42.6534 8.73817 40.9147 8.01709 39.1124 7.49438L38.4226 0.896C38.3969 0.650122 38.281 0.422483 38.0974 0.257017C37.9137 0.0915511 37.6752 -1.17919e-05 37.428 1.13903e-09H26.5719C26.3247 -1.17919e-05 26.0862 0.0915511 25.9025 0.257017C25.7188 0.422483 25.603 0.650122 25.5772 0.896L24.8875 7.49438C23.0852 8.01712 21.3465 8.73819 19.7033 9.64437L14.5476 5.46462C14.3556 5.30898 14.1127 5.22998 13.8659 5.24286C13.619 5.25574 13.3857 5.35959 13.2109 5.53438L5.53438 13.2109C5.35938 13.3857 5.2554 13.6192 5.24252 13.8662C5.22964 14.1133 5.30877 14.3563 5.46462 14.5484L9.64437 19.704C8.73822 21.3473 8.01714 23.086 7.49438 24.8883L0.896 25.5774C0.650144 25.6031 0.422522 25.7189 0.257059 25.9026C0.0915958 26.0862 1.91083e-05 26.3247 6.00623e-10 26.5719L6.00623e-10 37.4281C-8.56369e-06 37.6754 0.0915718 37.9138 0.257063 38.0975C0.422555 38.2812 0.650225 38.3971 0.896125 38.4227L7.49438 39.1125C8.01713 40.9148 8.7382 42.6535 9.64437 44.2967L5.46462 49.4524C5.30898 49.6444 5.22998 49.8873 5.24286 50.1341C5.25574 50.381 5.35959 50.6143 5.53438 50.7891L13.2109 58.4656C13.3857 58.6406 13.6192 58.7446 13.8662 58.7575C14.1133 58.7704 14.3563 58.6912 14.5484 58.5354L19.704 54.3556C21.3472 55.2618 23.086 55.9829 24.8883 56.5056L25.578 63.1039C25.6037 63.3497 25.7194 63.5773 25.903 63.7427C26.0865 63.9082 26.3249 63.9999 26.572 64H37.4281C37.6753 64 37.9138 63.9085 38.0975 63.743C38.2812 63.5775 38.397 63.3499 38.4227 63.104L39.1125 56.5057C40.9148 55.983 42.6535 55.262 44.2967 54.3558L49.4524 58.5354C49.6444 58.691 49.8873 58.7701 50.1341 58.7572C50.381 58.7443 50.6143 58.6405 50.7891 58.4658L58.4656 50.7892C58.6404 50.6144 58.7443 50.3811 58.7572 50.1342C58.7701 49.8873 58.6911 49.6444 58.5354 49.4524L54.3556 44.2967C55.2618 42.6535 55.9828 40.9148 56.5056 39.1125L63.1039 38.4227C63.3498 38.3971 63.5774 38.2812 63.7429 38.0975C63.9084 37.9138 64 37.6754 64 37.4281V26.5719C64 26.3246 63.9084 26.0862 63.7429 25.9025C63.5774 25.7188 63.3498 25.6029 63.1039 25.5772ZM55.6188 37.1942C55.4163 37.2154 55.2251 37.2979 55.0708 37.4306C54.9164 37.5633 54.8063 37.74 54.755 37.937C54.2109 40.0255 53.3801 42.0286 52.2865 43.8893C52.1834 44.0648 52.1363 44.2677 52.1515 44.4707C52.1668 44.6738 52.2437 44.8673 52.3719 45.0255L56.4144 50.012L50.0125 56.4144L45.0261 52.3719C44.868 52.2436 44.6744 52.1667 44.4713 52.1514C44.2682 52.1361 44.0653 52.1832 43.8898 52.2864C42.0292 53.3802 40.0261 54.2109 37.9375 54.7549C37.7405 54.8061 37.5638 54.9163 37.4311 55.0707C37.2983 55.2251 37.2159 55.4163 37.1948 55.6188L36.5272 62H27.4729L26.8057 55.6188C26.7846 55.4163 26.7021 55.225 26.5694 55.0707C26.4366 54.9163 26.2599 54.8061 26.0629 54.7549C23.9744 54.2108 21.9713 53.3801 20.1108 52.2864C19.9352 52.1832 19.7323 52.1362 19.5293 52.1515C19.3262 52.1667 19.1327 52.2436 18.9745 52.3719L13.9875 56.4145L7.58563 50.0125L11.6281 45.0261C11.7564 44.8679 11.8333 44.6744 11.8485 44.4713C11.8638 44.2682 11.8167 44.0653 11.7135 43.8898C10.6199 42.0291 9.78913 40.026 9.245 37.9375C9.19375 37.7405 9.0836 37.5639 8.92928 37.4311C8.77496 37.2984 8.58381 37.216 8.38138 37.1948L2 36.5272V27.4729L8.38138 26.8057C8.58385 26.7846 8.77504 26.7021 8.92938 26.5693C9.08373 26.4366 9.19388 26.2599 9.24512 26.0629C9.78912 23.9744 10.6198 21.9713 11.7135 20.1108C11.8166 19.9352 11.8637 19.7323 11.8485 19.5293C11.8332 19.3262 11.7563 19.1327 11.6281 18.9745L7.58563 13.9875L13.9875 7.58563L18.9739 11.6281C19.1321 11.7564 19.3256 11.8333 19.5287 11.8486C19.7318 11.8639 19.9347 11.8168 20.1103 11.7136C21.9709 10.6199 23.974 9.78914 26.0625 9.245C26.2595 9.19372 26.4361 9.08354 26.5688 8.9292C26.7015 8.77486 26.784 8.58369 26.8051 8.38125L27.4727 2H36.5271L37.1942 8.38125C37.2154 8.58375 37.2979 8.77496 37.4306 8.92933C37.5634 9.0837 37.7401 9.19388 37.9371 9.24512C40.0256 9.78916 42.0287 10.6199 43.8893 11.7136C44.0648 11.8168 44.2677 11.8638 44.4707 11.8485C44.6738 11.8333 44.8673 11.7564 45.0255 11.6281L50.0125 7.5855L56.4149 13.988L52.3724 18.9744C52.2441 19.1326 52.1672 19.3261 52.152 19.5292C52.1367 19.7323 52.1838 19.9352 52.287 20.1108C53.3807 21.9714 54.2114 23.9746 54.7555 26.0631C54.8068 26.2601 54.917 26.4367 55.0713 26.5694C55.2256 26.7021 55.4168 26.7846 55.6193 26.8057L62 27.4727V36.5271L55.6188 37.1942ZM32 15.875C28.8108 15.875 25.6932 16.8207 23.0414 18.5926C20.3897 20.3644 18.3229 22.8828 17.1024 25.8292C15.882 28.7757 15.5627 32.0179 16.1848 35.1458C16.807 38.2738 18.3428 41.147 20.5979 43.4021C22.853 45.6572 25.7262 47.193 28.8542 47.8152C31.9821 48.4373 35.2243 48.118 38.1708 46.8976C41.1172 45.6771 43.6356 43.6103 45.4074 40.9586C47.1793 38.3068 48.125 35.1892 48.125 32C48.1202 27.7249 46.4197 23.6262 43.3968 20.6032C40.3738 17.5803 36.2751 15.8798 32 15.875ZM22.503 42.447C23.0784 40.37 24.3187 38.5389 26.034 37.234C27.7493 35.9292 29.845 35.2226 32.0002 35.2224C34.1554 35.2223 36.2513 35.9286 37.9668 37.2332C39.6823 38.5378 40.9228 40.3687 41.4985 42.4456C38.9017 44.8126 35.5147 46.1248 32.001 46.125C28.4873 46.1253 25.1001 44.8136 22.503 42.447ZM43.0508 40.7875C42.1856 38.5599 40.6674 36.6456 38.6954 35.2958C36.7234 33.9459 34.3895 33.2234 31.9998 33.223C29.61 33.2226 27.2759 33.9443 25.3034 35.2935C23.331 36.6427 21.8122 38.5564 20.9463 40.7837C19.2917 38.704 18.2575 36.1996 17.9623 33.5585C17.6672 30.9173 18.1232 28.2464 19.2779 25.8528C20.4326 23.4591 22.2392 21.4398 24.4901 20.0268C26.7409 18.6138 29.3448 17.8645 32.0024 17.865C34.66 17.8654 37.2636 18.6156 39.514 20.0294C41.7643 21.4431 43.5702 23.4631 44.7241 25.8571C45.878 28.2512 46.3331 30.9222 46.0371 33.5632C45.7411 36.2043 44.706 38.7083 43.0508 40.7875ZM32 21.1375C30.963 21.1375 29.9493 21.445 29.087 22.0211C28.2248 22.5972 27.5527 23.416 27.1559 24.3741C26.759 25.3322 26.6552 26.3864 26.8575 27.4035C27.0598 28.4206 27.5592 29.3548 28.2924 30.0881C29.0257 30.8213 29.9599 31.3207 30.977 31.523C31.9941 31.7253 33.0483 31.6215 34.0064 31.2246C34.9645 30.8278 35.7833 30.1557 36.3594 29.2935C36.9355 28.4312 37.243 27.4175 37.243 26.3805C37.2414 24.9905 36.6885 23.6578 35.7056 22.6749C34.7227 21.692 33.39 21.1391 32 21.1375ZM32 29.6236C31.3586 29.6236 30.7315 29.4335 30.1982 29.0771C29.6648 28.7208 29.2491 28.2143 29.0037 27.6217C28.7582 27.0291 28.6939 26.377 28.819 25.7479C28.9442 25.1188 29.253 24.5409 29.7066 24.0873C30.1601 23.6337 30.738 23.3248 31.3671 23.1997C31.9962 23.0746 32.6483 23.1388 33.2409 23.3842C33.8335 23.6297 34.3401 24.0454 34.6964 24.5787C35.0528 25.112 35.243 25.7391 35.243 26.3805C35.2421 27.2404 34.9002 28.0647 34.2922 28.6728C33.6842 29.2808 32.8599 29.6229 32 29.6239V29.6236Z" fill="url(#paint0_linear_939_1431)"></path></g><defs><linearGradient id="paint0_linear_939_1431" x1="-5.12793e-08" y1="32" x2="61.4528" y2="35.134" gradientUnits="userSpaceOnUse"><stop stop-color="#065EFE"></stop><stop offset="1" stop-color="#00DCC7"></stop></linearGradient><clipPath id="clip0_939_1431"><rect width="64" height="64" fill="white"></rect></clipPath></defs></svg>